<?xml version="1.0" standalone="no"?>
<!DOCTYPE svg PUBLIC "-//W3C//DTD SVG 20010904//EN"
 "http://www.w3.org/TR/2001/REC-SVG-20010904/DTD/svg10.dtd">
<svg version="1.0" xmlns="http://www.w3.org/2000/svg"
 width="300.000000pt" height="300.000000pt" viewBox="0 0 300.000000 300.000000"
 preserveAspectRatio="xMidYMid meet">
<metadata>
Created by potrace 1.10, written by Peter Selinger 2001-2011
</metadata>
<g transform="translate(0.000000,300.000000) scale(0.100000,-0.100000)"
fill="#000000" stroke="none">
<path d="M1331 2905 c-63 -25 -133 -53 -155 -63 -23 -11 -63 -27 -91 -37 -27
-9 -59 -21 -70 -26 -11 -5 -45 -18 -75 -29 -30 -12 -66 -28 -78 -37 -16 -9
-33 -12 -50 -8 -63 16 -78 15 -111 -9 -19 -14 -38 -23 -43 -20 -24 15 -91 -10
-131 -48 -32 -31 -63 -46 -132 -69 -94 -30 -134 -58 -154 -111 -9 -25 -9 -51
4 -130 6 -33 4 -38 -24 -52 -38 -20 -61 -53 -61 -88 0 -15 -7 -43 -16 -61 -13
-26 -14 -42 -7 -63 7 -21 6 -40 -6 -71 -12 -35 -13 -49 -3 -76 18 -51 14 -93
-13 -133 -31 -45 -33 -105 -5 -156 16 -30 20 -59 21 -165 1 -70 6 -143 10
-163 5 -20 4 -39 -2 -46 -14 -18 -18 -82 -6 -113 9 -23 6 -31 -17 -54 -45 -45
-67 -112 -65 -192 3 -108 14 -125 216 -328 45 -45 84 -92 88 -104 9 -33 61
-72 105 -79 30 -5 41 -12 48 -33 22 -60 72 -88 140 -77 20 3 63 9 96 12 56 7
58 6 51 -15 -15 -48 14 -75 54 -49 14 9 23 8 42 -5 13 -10 42 -17 64 -17 23 0
55 -9 74 -21 42 -25 121 -28 157 -5 13 9 27 16 32 16 5 0 47 -31 95 -70 142
-113 189 -116 318 -17 121 93 124 95 147 74 26 -24 112 -23 162 3 22 11 56 20
77 20 21 0 48 7 60 15 19 13 26 13 43 3 29 -19 56 1 53 39 -3 29 -1 29 45 31
26 1 70 -5 97 -12 73 -19 122 4 150 70 10 25 20 32 51 37 53 9 80 30 108 85
26 51 61 87 116 120 20 12 45 38 57 59 12 21 36 52 54 68 100 94 103 284 6
373 -24 23 -25 26 -12 61 10 31 10 44 -1 76 -9 28 -11 51 -4 81 5 23 8 93 5
155 -3 107 -2 117 22 161 32 59 28 119 -11 170 -30 40 -32 70 -11 121 12 29
13 42 3 64 -6 15 -12 55 -13 88 -2 98 -27 164 -75 206 -42 36 -42 37 -30 74
15 44 7 118 -16 153 -17 26 -92 62 -169 81 -35 9 -64 26 -97 57 -26 24 -53 44
-60 45 -7 0 -32 2 -55 3 -25 2 -51 10 -63 21 -25 22 -77 27 -105 9 -18 -12
-25 -11 -54 7 -18 11 -59 30 -90 41 -31 11 -67 25 -81 31 -14 6 -29 11 -35 13
-5 2 -95 37 -200 78 -110 44 -205 75 -225 75 -19 0 -86 -20 -149 -44z m509
-114 c140 -55 260 -107 266 -116 14 -19 60 -20 68 0 13 34 93 8 107 -34 3 -8
12 -8 35 0 17 7 43 9 58 5 33 -8 76 -52 76 -77 0 -14 7 -19 29 -19 46 0 186
-47 206 -70 25 -28 31 -106 11 -153 -14 -34 -14 -41 0 -62 8 -12 28 -25 44
-29 37 -7 58 -45 43 -78 -8 -18 -6 -26 10 -38 24 -20 25 -64 2 -90 -10 -11
-14 -20 -9 -20 14 0 44 -54 44 -78 0 -12 -8 -27 -19 -34 -12 -9 -16 -19 -11
-33 4 -11 4 -30 -1 -42 -6 -18 -4 -25 11 -33 49 -26 64 -113 30 -165 -18 -26
-20 -47 -20 -176 0 -129 -2 -150 -19 -170 -19 -23 -19 -24 5 -52 13 -16 24
-35 24 -42 0 -26 -22 -63 -44 -72 -20 -10 -20 -10 9 -26 65 -33 105 -103 105
-183 0 -75 -20 -125 -71 -176 -26 -25 -49 -58 -53 -73 -4 -15 -20 -33 -38 -43
-54 -29 -118 -94 -141 -141 -25 -53 -54 -71 -114 -71 -41 0 -43 -2 -43 -29 0
-43 -9 -60 -41 -76 -35 -19 -57 -19 -93 0 -41 22 -231 21 -275 -1 -40 -20 -95
-12 -115 17 -13 20 -14 19 -20 -6 -11 -42 -41 -65 -86 -65 -36 0 -53 -10 -148
-86 -127 -102 -160 -119 -205 -105 -18 6 -83 51 -144 101 -93 74 -118 90 -147
90 -52 0 -67 9 -86 53 -17 37 -19 38 -29 19 -16 -29 -71 -38 -112 -18 -45 22
-223 22 -268 0 -65 -32 -135 5 -135 71 l0 35 -49 0 c-42 0 -54 5 -83 34 -19
19 -34 42 -34 51 0 17 -96 115 -112 115 -15 0 -48 45 -48 65 0 13 -12 27 -35
39 -46 25 -83 81 -97 149 -10 48 -9 64 5 110 17 54 77 127 104 127 18 0 17 6
-12 34 -34 34 -33 79 1 111 15 14 22 25 17 25 -23 0 -33 56 -33 191 0 122 -2
143 -19 167 -19 26 -24 51 -22 100 1 13 16 39 35 58 19 19 30 37 24 40 -6 4
-8 21 -5 39 4 24 0 36 -14 48 -25 22 -24 37 6 82 24 34 25 39 10 54 -21 24
-19 58 4 78 16 13 17 20 8 40 -8 19 -7 29 10 51 11 15 29 28 41 30 11 2 27 14
36 27 14 21 14 27 0 62 -19 44 -14 111 10 147 17 27 151 76 207 76 22 0 29 5
29 19 0 26 47 70 84 76 17 4 44 2 59 -4 17 -7 27 -7 27 -1 0 6 9 19 20 30 24
24 72 26 90 5 17 -20 39 -19 64 4 16 14 534 223 606 244 19 5 54 -8 370 -132z
m-1000 -2557 c0 -14 -21 -19 -33 -7 -9 9 13 34 24 27 5 -3 9 -12 9 -20z m216
1 c21 -20 37 -25 76 -25 42 0 49 -3 46 -17 -2 -14 -15 -19 -54 -21 -43 -2 -56
1 -82 23 -25 21 -40 25 -91 25 -44 0 -61 4 -61 13 0 23 11 27 76 27 53 0 67
-4 90 -25z m1013 12 c17 -21 3 -27 -57 -27 -43 0 -60 -5 -84 -25 -26 -22 -39
-25 -82 -23 -39 2 -52 7 -54 21 -3 14 4 17 43 17 36 0 54 6 77 25 24 20 40 25
88 25 36 0 62 -5 69 -13z m89 -10 c2 -12 -3 -17 -17 -17 -12 0 -21 6 -21 13 0
31 32 34 38 4z"/>
<path d="M1230 2757 c-130 -51 -249 -97 -265 -102 -28 -10 -23 -13 100 -56
l130 -46 3 -109 c1 -59 7 -111 12 -114 6 -4 -1 -17 -14 -29 l-25 -23 -25 28
c-18 20 -25 41 -26 67 0 28 -8 47 -27 68 -16 16 -30 41 -33 56 -4 23 -10 28
-34 28 -57 0 -61 -66 -5 -73 13 -2 36 -15 52 -30 21 -20 27 -35 27 -67 0 -33
6 -47 29 -69 29 -28 29 -29 13 -54 l-16 -25 -33 39 c-18 22 -33 49 -33 62 0
30 -42 51 -65 32 -9 -8 -15 -25 -13 -39 2 -20 9 -27 29 -29 14 -2 43 -20 64
-42 l38 -39 -20 -33 c-12 -20 -27 -33 -39 -33 -13 0 -59 41 -127 114 -92 99
-105 118 -101 141 10 49 -45 79 -80 44 -31 -30 -9 -84 34 -84 10 0 41 -26 69
-57 48 -55 51 -61 51 -113 0 -53 3 -58 44 -99 45 -44 45 -44 29 -75 l-16 -30
-58 64 -58 65 -1 76 c0 83 -12 106 -51 96 -23 -6 -69 34 -69 60 0 21 -44 12
-48 -9 -2 -12 6 -21 22 -27 13 -6 30 -19 35 -30 7 -13 24 -21 48 -23 l36 -3
-2 -75 c-2 -70 0 -77 24 -100 15 -14 45 -46 67 -72 33 -40 37 -50 28 -67 -10
-19 -17 -14 -93 71 -66 74 -81 96 -79 119 6 54 -71 65 -84 12 -5 -20 -2 -31
16 -45 12 -10 26 -16 30 -13 4 3 44 -36 90 -85 l82 -90 -55 0 -55 0 -91 99
c-50 54 -88 101 -85 104 4 3 4 17 0 30 -8 32 -40 40 -68 17 -20 -15 -21 -21
-10 -44 7 -16 20 -26 34 -27 16 0 48 -29 101 -90 l79 -89 -96 0 -96 0 0 -140
c0 -108 3 -140 13 -140 23 0 77 -64 77 -91 0 -26 65 -99 88 -99 17 0 15 30 -5
52 -13 14 -14 21 -5 30 20 20 36 -6 36 -59 1 -46 0 -48 -24 -45 -36 5 -110 80
-110 112 0 31 -35 67 -70 72 l-25 3 -3 153 c-2 144 -4 152 -22 152 -19 0 -20
7 -20 135 0 113 -2 135 -15 135 -13 0 -15 -22 -15 -135 l0 -135 -40 0 -40 0 0
-300 0 -300 67 0 66 0 -21 23 c-14 15 -22 36 -22 58 0 23 -7 41 -21 53 -17 14
-20 24 -14 54 14 82 17 155 5 177 -18 34 -9 60 22 63 18 2 30 -3 37 -17 11
-20 5 -51 -10 -51 -5 0 -9 -26 -9 -59 0 -57 1 -59 30 -65 55 -10 63 -94 11
-111 -16 -5 -19 -12 -14 -43 9 -57 37 -82 93 -82 35 0 52 5 66 21 l19 21 -50
-3 c-42 -3 -50 0 -53 15 -3 15 0 18 20 13 23 -6 25 -4 23 31 -2 25 -8 38 -19
40 -18 4 -22 27 -5 38 18 11 33 -13 39 -64 l5 -47 39 3 40 4 -27 -35 -27 -35
49 -12 c27 -6 58 -18 68 -25 15 -12 -12 -14 -204 -15 l-221 0 -46 51 -46 51 0
142 c0 135 1 144 23 164 l22 21 -3 -154 c-3 -128 -1 -158 12 -177 15 -21 16 1
16 285 l0 307 51 0 c61 0 61 -3 -12 111 -29 44 -55 77 -60 72 -4 -4 -33 -46
-63 -93 l-55 -85 54 -3 55 -3 0 -89 c0 -48 3 -97 7 -107 5 -15 2 -15 -19 5
-68 62 -160 -27 -97 -94 20 -21 21 -33 20 -179 l-2 -157 58 -61 58 -61 134 2
c80 0 138 5 144 11 15 15 50 14 65 -1 17 -17 15 -67 -3 -74 -11 -5 -15 -21
-15 -60 0 -41 -4 -54 -15 -54 -11 0 -15 12 -15 50 0 86 -9 90 -182 90 l-147 0
-23 30 c-28 38 -63 38 -63 0 0 -19 5 -25 22 -25 12 0 32 -10 45 -21 13 -12 39
-22 62 -23 75 -4 156 -56 156 -101 0 -13 7 -20 20 -20 17 0 20 7 20 45 0 41
-2 45 -25 45 -18 0 -25 5 -25 20 0 25 10 25 55 -1 34 -20 36 -25 34 -65 -3
-40 1 -48 39 -87 37 -37 42 -48 42 -88 l0 -45 38 4 c36 4 39 6 34 30 -3 15
-13 33 -24 40 -27 20 -24 77 6 97 21 14 23 23 23 85 0 39 -3 70 -8 70 -14 0
-21 41 -9 55 18 21 57 18 70 -4 10 -21 4 -51 -11 -51 -5 0 -9 -31 -9 -70 0
-60 3 -72 25 -94 32 -32 32 -50 0 -82 -14 -14 -25 -36 -25 -52 l0 -27 80 3 80
4 -2 43 c-1 36 -8 50 -35 77 -18 17 -33 40 -33 49 0 9 -7 19 -15 23 -20 7 -19
50 0 66 12 10 21 10 40 2 28 -13 31 -32 13 -62 -11 -17 -8 -24 25 -58 33 -34
37 -43 37 -90 0 -52 0 -52 33 -52 27 -1 51 -18 154 -115 l123 -115 226 0 226
0 124 116 c111 104 127 116 154 112 l30 -5 0 58 c0 54 2 59 41 94 39 35 40 37
24 55 -36 39 16 90 56 54 24 -22 24 -29 -2 -55 -11 -11 -18 -26 -16 -34 3 -7
-10 -28 -29 -46 -29 -28 -34 -40 -34 -78 l0 -46 78 3 79 3 -5 27 c-3 15 -13
33 -24 40 -24 17 -23 67 2 92 16 16 20 33 20 85 0 36 -6 74 -12 85 -18 28 1
55 38 55 23 0 30 -5 32 -24 2 -13 -1 -28 -7 -34 -6 -6 -11 -41 -11 -79 0 -58
3 -70 25 -92 14 -14 25 -32 25 -41 0 -9 -11 -27 -25 -41 -14 -14 -25 -36 -25
-52 0 -26 2 -27 40 -24 40 4 40 4 34 41 -5 33 -1 40 40 81 43 41 46 48 46 96
0 46 3 54 23 60 12 4 25 11 28 17 9 14 42 0 37 -15 -3 -7 -15 -15 -29 -18 -20
-5 -25 -13 -27 -48 -3 -39 -1 -42 22 -42 20 0 25 6 28 27 5 42 85 93 148 93
34 0 52 5 64 19 10 11 30 21 45 23 20 2 26 8 26 28 0 38 -35 38 -63 0 l-23
-30 -148 0 c-141 0 -148 -1 -169 -23 -16 -17 -22 -36 -22 -70 0 -35 -4 -47
-15 -47 -11 0 -15 12 -15 52 0 34 -6 58 -17 70 -26 29 -7 72 35 76 20 2 34 -2
37 -10 4 -10 38 -13 143 -12 l138 1 57 60 57 60 0 160 c0 147 2 161 20 178 42
38 11 115 -47 115 -15 0 -36 -9 -47 -19 l-21 -20 0 105 0 104 53 0 c30 0 52 4
50 8 -7 19 -113 181 -119 182 -6 0 -119 -174 -119 -184 0 -3 25 -6 55 -6 l55
0 0 -301 c0 -276 1 -300 16 -288 14 12 16 35 12 170 l-4 157 23 -24 c22 -24
23 -33 23 -160 l0 -135 -47 -55 -48 -54 -225 0 c-197 1 -223 2 -206 15 10 8
43 19 73 25 l55 12 -33 34 -33 34 42 0 c42 0 42 0 42 38 1 40 22 78 39 67 16
-9 13 -35 -4 -35 -11 0 -15 -11 -15 -39 0 -34 3 -38 20 -34 14 4 20 0 20 -10
0 -18 -16 -31 -24 -19 -3 5 -19 7 -36 4 -30 -4 -30 -5 -14 -23 12 -13 31 -19
61 -19 35 0 49 5 68 28 32 35 32 74 0 106 -14 14 -25 33 -25 43 0 28 29 63 51
63 16 0 19 7 19 55 0 30 -6 64 -12 75 -23 37 24 77 57 50 19 -16 19 -49 0 -56
-11 -5 -15 -22 -15 -69 0 -43 5 -66 15 -75 23 -19 19 -66 -7 -87 -17 -13 -22
-26 -20 -47 2 -18 -4 -40 -17 -57 l-22 -29 66 0 65 0 0 300 0 300 -45 0 -45 0
0 156 c0 120 -3 155 -12 151 -10 -3 -13 -43 -13 -155 0 -150 0 -152 -22 -152
-22 0 -23 -2 -25 -152 -3 -139 -5 -151 -22 -154 -27 -4 -76 -54 -76 -79 0 -27
-78 -102 -110 -107 -24 -3 -25 -1 -24 45 0 53 16 79 36 59 9 -9 8 -16 -5 -30
-21 -23 -22 -52 -2 -52 21 0 84 71 85 95 0 25 56 95 76 95 11 0 14 25 14 140
l0 140 -96 0 -96 0 79 89 c52 60 85 90 100 90 12 1 27 10 33 20 20 39 -16 76
-58 60 -18 -7 -23 -15 -21 -37 3 -24 -11 -46 -81 -125 l-85 -95 -63 -1 -64 -1
82 87 c45 48 87 88 93 89 7 0 17 2 24 2 37 5 35 71 -3 86 -26 10 -66 -21 -62
-49 2 -17 -16 -46 -71 -109 -41 -47 -78 -86 -82 -86 -4 0 -11 10 -14 21 -6 17
5 34 54 83 l61 62 0 82 0 82 33 0 c37 1 125 70 113 89 -11 17 -36 13 -43 -6
-12 -32 -51 -62 -73 -56 -38 10 -50 -13 -50 -96 l-1 -76 -59 -63 -59 -63 -15
28 c-14 27 -14 29 26 70 39 40 41 46 39 93 -2 50 0 54 54 115 38 44 64 65 83
67 37 4 53 49 27 78 -36 39 -92 11 -81 -41 5 -27 -16 -53 -199 -248 -19 -19
-53 -5 -71 31 -16 30 -15 31 22 69 20 21 41 36 45 33 5 -3 18 0 29 6 26 14 26
56 1 70 -28 14 -51 2 -58 -30 -3 -16 -18 -44 -35 -64 l-30 -36 -18 22 c-18 23
-18 23 10 53 23 24 29 40 31 85 2 42 0 55 -11 55 -11 0 -14 -12 -12 -45 2 -36
-3 -51 -24 -74 l-26 -29 -31 31 c-27 27 -28 30 -9 25 22 -5 22 -4 22 108 l0
114 76 27 76 27 -7 -27 c-6 -26 -6 -36 -3 -84 1 -13 -2 -44 -6 -70 l-8 -48 47
0 47 0 -8 43 c-7 36 -8 56 -5 120 1 6 -2 29 -5 50 -6 35 -5 37 20 37 36 0 33
16 -5 29 -18 6 -34 11 -35 11 -2 0 -4 -20 -4 -45 0 -25 -4 -45 -10 -45 -5 0
-10 21 -10 48 l0 48 -212 83 c-117 46 -224 85 -238 87 -14 1 -127 -37 -260
-89z m402 -6 c68 -27 151 -60 186 -73 34 -12 62 -28 62 -34 0 -12 -50 -34 -76
-34 -8 0 -16 11 -20 25 -6 26 -57 75 -77 75 -7 0 -61 16 -121 35 -122 40 -120
40 -269 -17 -87 -34 -127 -66 -127 -105 0 -27 -7 -26 -79 3 -30 12 -33 17 -20
27 8 7 46 24 84 37 39 13 117 43 175 66 58 24 117 43 132 44 15 0 82 -22 150
-49z m-17 -54 l130 -44 3 -136 c1 -76 0 -137 -3 -137 -3 0 -18 9 -33 20 -29
21 -198 80 -229 80 -10 0 -73 -18 -138 -40 -65 -22 -121 -40 -122 -40 -2 0 -2
57 -1 126 l3 127 95 32 c52 18 106 37 120 43 36 15 34 16 175 -31z m-62 -296
c5 -5 6 -22 3 -37 l-7 -27 -29 28 -29 28 -34 -26 -33 -25 -11 28 c-10 27 -9
30 16 39 29 12 110 6 124 -8z m-149 -86 c8 -33 18 -83 22 -112 6 -45 4 -52
-14 -62 -29 -16 -29 -16 -37 35 -3 25 -22 74 -40 110 l-34 64 37 19 c20 11 40
16 44 13 3 -4 13 -34 22 -67z m255 37 c11 -8 10 -15 -8 -38 -23 -32 -61 -133
-61 -164 0 -23 -4 -24 -30 -10 -21 11 -21 8 6 155 9 43 18 83 20 87 5 7 37 -6
73 -30z m-139 -12 c21 -15 26 -25 22 -45 -2 -14 -8 -25 -13 -25 -5 0 -7 11 -4
23 5 18 0 28 -18 40 -23 15 -26 15 -41 -2 -9 -10 -16 -31 -16 -47 0 -22 -3
-26 -10 -14 -16 25 -11 57 13 73 29 21 34 21 67 -3z m-190 -109 c28 -72 47
-159 56 -246 4 -40 14 -76 22 -84 13 -13 7 -17 -52 -28 -37 -6 -81 -19 -98
-27 -39 -20 -40 -20 -37 2 7 50 -84 182 -126 182 -16 0 -20 25 -6 35 14 8 100
-75 122 -117 10 -21 19 -46 19 -58 0 -11 5 -20 10 -20 30 0 -19 118 -70 168
-19 17 -36 32 -39 32 -24 1 -31 18 -20 43 15 33 20 33 46 5 39 -43 72 -103 94
-171 13 -41 26 -64 31 -59 22 22 -41 173 -98 240 -19 22 -34 43 -34 47 0 11
40 65 48 65 25 0 98 -171 122 -282 11 -58 30 -79 30 -35 0 37 -39 177 -67 239
-14 31 -36 67 -49 79 l-24 23 32 33 32 34 18 -23 c10 -13 27 -48 38 -77z m403
5 c-14 -17 -37 -55 -49 -83 -26 -59 -64 -195 -64 -230 0 -32 18 -29 25 5 28
130 52 197 96 267 l31 49 28 -34 28 -35 -34 -37 c-18 -20 -44 -59 -58 -86 -27
-54 -61 -161 -53 -169 10 -10 27 8 27 28 0 48 103 229 129 229 4 0 13 -12 20
-27 10 -22 10 -28 -1 -32 -34 -10 -106 -98 -122 -149 -18 -52 -18 -52 5 -71
38 -30 14 -41 -36 -15 -25 12 -70 26 -100 29 -53 7 -70 20 -41 31 8 3 16 30
20 73 9 97 51 256 82 308 l26 45 34 -33 33 -32 -26 -31z m-233 19 c9 -11 10
-15 0 -15 -8 0 -11 -18 -9 -55 1 -30 -2 -54 -7 -52 -5 1 -9 25 -9 54 0 29 -3
49 -7 45 -12 -12 -12 -112 0 -124 19 -19 42 -1 42 32 0 18 4 29 10 25 14 -9
13 -48 -2 -63 -16 -16 -53 -15 -66 1 -13 16 -7 134 9 153 15 18 23 18 39 -1z
m-488 -181 l-12 -24 -35 39 c-26 28 -35 48 -35 72 l0 34 46 -48 c42 -44 46
-50 36 -73z m997 20 c-37 -38 -44 -41 -53 -18 -4 10 9 34 36 67 l43 51 3 -33
c3 -27 -3 -40 -29 -67z m-561 -26 c-21 -5 -20 -6 7 -8 l30 -2 -30 -8 c-24 -6
-18 -8 35 -10 l65 -3 -60 -7 -60 -7 52 -1 c45 -2 52 -5 50 -22 -1 -17 -9 -20
-52 -22 l-50 -1 55 -7 55 -7 -55 -3 -55 -4 48 -3 c39 -3 47 -8 47 -24 0 -16
-8 -19 -42 -21 l-43 -1 45 -6 45 -7 -48 -5 c-27 -2 -50 -2 -53 0 -2 2 -4 27
-4 55 0 28 -5 71 -11 95 -11 50 1 67 33 48 17 -11 17 -12 -4 -19z m440 -21 c2
-10 -3 -17 -12 -17 -26 0 -83 -58 -103 -105 -17 -42 -33 -59 -33 -35 0 29 35
88 78 131 48 49 65 55 70 26z m-835 -17 c-3 -10 -11 -25 -19 -31 -8 -6 -14
-19 -14 -29 0 -24 -45 -123 -61 -137 -17 -12 -102 -9 -106 4 -2 5 15 16 37 23
49 16 74 44 119 133 31 62 56 83 44 37z m893 -12 c45 -98 81 -141 133 -158 52
-17 43 -35 -17 -35 -46 0 -48 1 -69 44 -13 25 -27 49 -33 55 -5 5 -10 21 -10
36 0 14 -9 36 -20 50 -22 28 -25 40 -9 40 5 0 17 -15 25 -32z m-1598 2 c10
-16 10 -20 -2 -20 -8 0 -16 7 -20 15 -3 8 -11 15 -18 14 -10 0 -10 -2 0 -6 21
-8 13 -23 -13 -23 -28 0 -30 5 -12 25 18 21 50 18 65 -5z m2338 6 c19 -20 18
-26 -7 -26 -14 0 -19 5 -16 14 4 10 -2 16 -16 19 -21 4 -21 4 1 6 13 0 30 -5
38 -13z m-1581 -41 c35 -34 31 -42 -20 -43 -25 -1 -45 0 -45 2 0 15 24 66 31
66 6 0 21 -11 34 -25z m814 -6 c6 -18 11 -33 11 -35 0 -2 -20 -3 -45 -2 -25 1
-45 4 -45 7 0 8 53 61 61 61 4 0 12 -14 18 -31z m774 4 c-18 -2 -48 -2 -65 0
-18 2 -4 4 32 4 36 0 50 -2 33 -4z m-2335 -20 c-21 -2 -57 -2 -80 0 -24 2 -7
4 37 4 44 0 63 -2 43 -4z m2345 0 c-24 -2 -62 -2 -85 0 -24 2 -5 4 42 4 47 0
66 -2 43 -4z m-1550 -60 c2 -10 8 -26 12 -35 6 -15 2 -18 -19 -18 -19 0 -26 5
-26 20 0 11 -4 20 -9 20 -5 0 -7 -9 -4 -20 5 -18 0 -20 -51 -20 -31 0 -56 2
-56 5 0 4 7 19 15 35 15 28 19 30 74 30 47 0 60 -3 64 -17z m800 0 c2 -10 8
-26 12 -35 6 -16 -1 -18 -79 -18 -47 0 -86 2 -86 4 0 1 5 17 11 35 11 30 12
31 74 31 51 0 64 -3 68 -17z m-1221 -81 c-2 -18 1 -32 7 -32 6 0 11 7 11 15 0
8 5 15 11 15 21 0 3 -35 -19 -38 -21 -3 -20 -5 13 -28 20 -13 39 -24 42 -24 3
0 3 23 0 51 -5 44 -4 50 11 47 14 -3 16 -12 14 -51 -3 -33 0 -47 8 -45 7 2 14
-10 15 -25 4 -28 3 -29 -35 -25 -43 4 -60 -13 -39 -39 9 -10 14 -11 20 -2 9
15 42 3 37 -14 -7 -19 -38 -21 -57 -3 -10 9 -25 14 -35 10 -24 -9 -19 -23 7
-18 l22 5 -22 -12 c-13 -7 -23 -18 -23 -26 0 -15 26 -18 35 -3 8 13 25 3 25
-14 0 -9 -18 -12 -60 -12 -42 0 -60 3 -60 12 0 17 17 27 25 14 9 -14 25 -12
25 3 0 18 -43 37 -68 30 -24 -6 -39 14 -22 30 10 9 14 9 17 0 10 -28 24 -11
17 22 -7 38 5 61 41 75 14 6 16 9 4 9 -9 1 -26 -8 -39 -19 -13 -12 -30 -18
-37 -16 -7 3 -13 1 -13 -4 0 -6 7 -10 15 -10 8 0 15 -4 15 -9 0 -5 -11 -8 -24
-8 -19 0 -23 5 -24 29 -1 23 3 28 15 24 14 -6 15 2 10 54 -4 46 -2 60 8 60 19
0 29 -18 17 -33 -9 -12 -15 -87 -7 -87 2 0 21 11 41 25 20 14 30 25 22 25 -19
0 -44 28 -34 38 4 4 13 -1 20 -11 20 -26 29 -21 23 12 -6 30 0 44 17 38 6 -2
10 -18 8 -35z m863 27 c38 -5 90 -19 114 -31 l44 -21 -6 -111 c-12 -196 -47
-282 -141 -341 -38 -23 -62 -30 -115 -33 -60 -3 -71 0 -121 30 -100 61 -136
145 -147 345 l-6 111 40 21 c70 35 214 48 338 30z m-1111 -15 c21 -20 20 -27
-5 -50 -15 -14 -24 -16 -37 -8 -22 14 -27 41 -12 59 16 19 35 19 54 -1z m1780
-14 c-4 -19 -2 -30 5 -30 6 0 11 7 11 16 0 9 5 14 11 12 17 -6 13 -22 -8 -33
-18 -9 -17 -12 15 -33 l34 -22 -4 57 c-2 46 0 58 12 58 12 0 14 -12 12 -58 -3
-41 0 -57 8 -55 7 2 13 -9 15 -23 3 -22 -1 -26 -21 -26 -17 0 -24 5 -24 18 0
11 -5 19 -10 19 -6 0 -8 -10 -4 -24 3 -13 1 -27 -5 -30 -7 -5 -11 3 -11 19 0
15 -4 24 -10 20 -15 -9 -11 -27 12 -55 14 -16 22 -21 25 -12 6 17 30 15 36 -3
7 -18 -6 -27 -36 -24 -39 5 -68 -11 -65 -34 3 -18 -3 -21 -34 -23 -27 -2 -38
1 -38 11 0 18 17 28 25 15 9 -15 25 -12 25 4 0 20 -19 30 -59 31 -39 0 -55 23
-22 32 33 8 26 33 -9 33 -16 0 -30 5 -30 10 0 6 14 10 30 10 17 0 30 5 30 10
0 6 -13 8 -30 5 -23 -4 -30 -2 -30 11 0 11 5 14 16 10 15 -6 16 0 11 44 -5 45
-4 51 11 48 14 -3 16 -12 14 -51 -3 -29 0 -47 7 -47 6 0 11 4 11 8 0 5 12 14
27 21 l27 12 -24 12 c-13 7 -25 18 -28 25 -5 17 17 15 24 -3 11 -28 26 -16 19
15 -6 26 -4 30 14 30 17 0 20 -4 15 -30z m280 14 c21 -20 20 -27 -3 -48 -36
-33 -83 18 -49 52 16 16 33 15 52 -4z m-1364 -24 c0 -10 -9 -20 -20 -23 -11
-3 -20 -12 -20 -21 0 -13 -14 -16 -90 -16 -49 0 -90 2 -90 4 0 2 6 19 14 37
l14 34 96 2 c86 1 96 0 96 -17z m816 -19 c8 -18 14 -35 14 -37 0 -2 -40 -4
-89 -4 -80 0 -89 2 -94 20 -3 11 -12 20 -21 20 -9 0 -16 8 -16 19 0 17 8 18
96 17 l96 -2 14 -33z m-1080 -2 c3 -6 0 -17 -8 -25 -13 -13 -16 -13 -28 1 -12
14 -11 18 1 26 19 12 26 11 35 -2z m1171 -5 c9 -23 -11 -38 -26 -20 -13 16 -7
36 10 36 5 0 12 -7 16 -16z m-902 -57 c13 17 14 16 15 -9 0 -16 -5 -28 -11
-28 -7 0 -9 -13 -5 -37 6 -35 5 -37 -9 -19 -9 13 -14 38 -14 70 1 28 4 41 6
28 4 -22 5 -23 18 -5z m625 -45 c-10 -56 -32 -82 -23 -28 5 30 3 35 -9 31 -12
-5 -14 0 -11 19 6 28 18 34 26 14 3 -7 6 -2 7 12 0 19 3 22 9 10 5 -8 6 -35 1
-58z m-1546 32 c19 -19 20 -26 4 -42 -30 -30 -77 3 -57 40 12 22 33 23 53 2z
m2500 0 c19 -19 20 -26 4 -42 -18 -18 -46 -14 -58 7 -7 15 -6 23 6 35 19 20
29 20 48 0z m-1624 -34 l0 -40 -115 0 c-63 0 -115 2 -115 5 0 2 8 20 17 40
l17 35 98 0 98 0 0 -40z m903 5 c9 -20 17 -38 17 -40 0 -3 -52 -5 -115 -5
-125 0 -124 0 -109 58 6 21 11 22 98 22 l92 0 17 -35z m-859 -108 l40 -37
-182 0 -182 0 19 38 19 37 123 0 124 -1 39 -37z m908 0 l18 -37 -175 0 c-96 0
-175 2 -175 5 0 3 14 20 32 38 l32 32 125 -1 124 -1 19 -36z m-1277 -64 c-12
-18 -20 -22 -28 -14 -10 10 -6 18 28 57 18 21 18 -15 0 -43z m1370 -13 c-6 -9
-13 -6 -26 11 -29 38 -24 58 7 27 16 -16 23 -31 19 -38z m-961 -6 c3 -9 6 -24
6 -35 0 -18 -10 -19 -205 -19 -113 0 -205 2 -205 3 0 2 7 18 16 35 l15 32 184
0 c157 0 184 -2 189 -16z m911 -21 l14 -33 -206 0 -205 0 6 23 c3 12 6 28 6
35 0 10 41 12 186 10 l186 -3 13 -32z m-895 -75 c0 -7 3 -22 6 -33 5 -20 0
-20 -230 -20 -130 0 -236 1 -236 3 0 2 7 16 15 32 l16 30 214 0 c165 0 215 -3
215 -12z m933 -5 c2 -10 8 -25 11 -33 5 -13 -23 -15 -224 -15 l-230 0 0 33 0
32 219 0 c200 0 219 -2 224 -17z m-463 -69 c0 -8 -4 -14 -10 -14 -12 0 -31 35
-23 44 9 8 33 -14 33 -30z m-395 -10 c20 -38 88 -104 106 -104 6 0 -1 16 -16
36 -15 19 -25 37 -24 39 2 2 26 -1 54 -6 30 -6 69 -6 100 0 27 5 51 8 53 7 1
-2 -24 -26 -57 -54 -56 -49 -60 -51 -95 -41 -45 12 -114 72 -132 114 -7 17
-13 24 -14 18 0 -17 -30 -17 -30 0 0 40 31 34 55 -9z m335 -39 c-12 -19 -40
-46 -63 -59 -47 -28 -104 -45 -94 -29 4 6 20 13 37 16 34 7 116 78 126 110 4
13 9 17 11 10 3 -7 -5 -29 -17 -48z m-609 15 c188 0 219 -2 219 -15 0 -22
-410 -22 -464 0 -44 19 -47 30 -5 21 17 -3 130 -6 250 -6z m1169 3 c0 -1 -10
-8 -22 -15 -16 -9 -91 -15 -246 -18 -217 -5 -222 -5 -222 15 0 19 7 20 245 20
135 0 245 -1 245 -2z m-547 -43 c-7 -26 -67 -79 -112 -97 -50 -21 -112 -11
-172 26 -63 39 -60 17 3 -25 78 -53 98 -56 159 -28 30 14 69 39 87 57 17 17
32 26 32 20 0 -29 -128 -112 -173 -113 -55 0 -197 102 -167 120 9 5 9 9 1 14
-6 4 -11 14 -11 22 0 9 13 1 35 -20 19 -20 50 -43 68 -52 69 -36 168 -9 224
61 15 19 29 35 30 35 0 0 -1 -9 -4 -20z m-402 -27 c0 -10 2 -34 5 -53 2 -19
13 -105 24 -190 11 -85 20 -161 20 -169 0 -11 -10 -12 -47 -7 -100 13 -218 88
-261 165 l-23 41 27 -11 c16 -5 78 -9 138 -8 88 1 111 -1 111 -12 0 -11 -14
-13 -62 -11 -75 5 -165 -6 -157 -19 3 -5 54 -9 114 -9 78 0 110 -4 113 -12 2
-7 2 25 0 72 -3 47 -8 91 -13 99 -4 8 -5 32 -3 53 l6 38 -176 0 c-153 0 -176
-2 -171 -15 5 -12 34 -15 170 -15 139 0 164 -2 164 -15 0 -13 -25 -15 -164
-15 -162 0 -165 0 -171 23 -4 12 -18 37 -32 55 l-24 32 205 0 c189 0 206 -1
207 -17z m839 -10 c-19 -25 -19 -25 -197 -23 l-179 1 0 -43 c-1 -24 -4 -72 -8
-108 -3 -36 -4 -60 -1 -55 3 6 57 10 135 9 82 -1 130 3 130 9 0 6 3 8 6 4 9
-9 -40 -75 -84 -113 -51 -43 -132 -80 -196 -90 l-49 -7 6 38 c3 21 16 120 29
221 l23 182 202 0 203 0 -20 -25z m56 -17 c-3 -14 -1 -37 4 -52 6 -15 9 -28 7
-30 -6 -6 -67 17 -67 25 0 9 50 81 56 81 4 0 3 -11 0 -24z m-1306 -18 c26 -43
26 -44 -11 -57 -41 -14 -41 -14 -29 8 5 11 10 33 10 50 0 39 5 39 30 -1z
m1214 -32 c-5 -14 -27 -16 -165 -16 -133 0 -159 2 -159 15 0 12 27 15 163 17
89 2 163 3 165 2 1 -1 0 -9 -4 -18z m-690 -20 c70 -53 106 -61 160 -37 25 11
61 32 81 47 47 35 45 18 -2 -24 -22 -19 -28 -28 -16 -22 12 5 25 15 28 20 3 6
11 10 16 10 6 0 7 -6 2 -12 -4 -7 -6 -21 -5 -30 4 -24 -69 -59 -138 -65 -44
-4 -67 -1 -105 16 -47 21 -48 21 -30 1 41 -45 164 -51 231 -10 l34 22 0 -35
c0 -34 -3 -37 -55 -56 -64 -24 -114 -26 -170 -6 -50 18 -57 12 -13 -11 49 -27
143 -25 190 3 l38 22 -4 -32 c-2 -18 -4 -47 -5 -65 -1 -28 -7 -35 -36 -48 -73
-30 -214 -9 -214 33 0 46 -9 122 -16 132 -13 22 0 21 50 -4 26 -14 61 -25 77
-25 49 0 116 21 135 42 18 21 18 21 -16 3 -57 -29 -138 -31 -199 -5 -55 24
-54 22 -56 107 -1 17 -5 35 -9 39 -8 8 -10 24 -2 24 3 0 25 -15 49 -34z m-134
-41 c0 -12 -24 -15 -135 -15 -83 0 -135 -4 -135 -10 0 -6 53 -10 140 -10 118
0 140 -2 140 -15 0 -13 -22 -15 -140 -15 l-140 0 -20 40 c-11 21 -20 41 -20
42 0 2 70 2 155 0 127 -2 155 -6 155 -17z m784 -24 l-18 -41 -143 0 c-120 0
-143 2 -143 15 0 13 22 15 139 15 87 0 142 4 146 11 5 7 -37 9 -134 7 -128 -3
-141 -1 -141 14 0 16 16 18 153 20 83 2 154 2 156 1 1 -1 -5 -20 -15 -42z
m-968 -219 c-22 -5 -66 27 -66 47 0 32 11 30 46 -7 25 -27 31 -38 20 -40z
m924 53 c0 -17 -9 -29 -31 -40 -49 -26 -56 -12 -14 28 22 20 40 37 42 37 2 0
3 -11 3 -25z m-1116 -1 c10 -27 7 -34 -19 -34 -28 0 -29 3 -15 31 13 23 26 24
34 3z m1286 -20 c0 -16 -36 -19 -45 -4 -4 6 -1 17 5 26 14 16 40 2 40 -22z
m-959 -99 c23 -8 73 -15 111 -15 61 0 69 -2 66 -17 -3 -15 -12 -17 -63 -15
l-60 4 24 -26 c20 -21 34 -26 72 -26 29 0 51 6 59 15 17 20 33 19 54 -4 14
-15 15 -24 6 -40 -13 -25 -58 -29 -66 -6 -4 11 -21 15 -56 15 -45 0 -55 4
-100 45 -28 25 -55 45 -62 45 -20 0 -86 50 -86 66 0 13 5 12 29 -6 16 -11 49
-27 72 -35z m689 36 c-5 -11 -34 -31 -63 -46 -30 -14 -71 -44 -92 -65 -36 -36
-44 -40 -91 -40 -37 0 -54 -4 -58 -15 -8 -22 -53 -19 -66 4 -21 41 25 78 59
47 28 -26 95 -21 128 9 l28 26 -60 -3 c-48 -2 -60 0 -60 12 0 12 18 16 80 20
66 5 90 11 135 37 65 37 74 40 60 14z m-357 -72 l-41 -20 -38 20 -39 21 80 0
80 0 -42 -21z"/>
<path d="M1482 2616 l3 -107 120 -40 c66 -21 121 -39 123 -39 1 0 2 47 2 104
l0 104 -112 38 c-62 20 -119 39 -126 42 -10 3 -12 -19 -10 -102z m143 21 l60
-22 3 -63 c3 -72 4 -72 -84 -42 -70 24 -84 40 -84 95 0 64 9 67 105 32z"/>
<path d="M1293 2640 c1 -11 6 -20 12 -20 5 0 3 -5 -5 -10 -13 -9 -13 -10 0
-10 13 0 13 -1 0 -10 -13 -9 -13 -10 0 -10 13 0 13 -1 0 -10 -13 -8 -13 -10 1
-10 12 0 16 10 15 40 0 22 -5 40 -9 40 -5 0 -5 5 -2 10 3 6 2 10 -4 10 -5 0
-9 -9 -8 -20z"/>
<path d="M1250 2638 c-12 -11 -14 -32 -10 -114 l5 -101 50 24 c49 23 49 24 13
17 l-37 -6 -3 96 c-3 85 -5 95 -18 84z"/>
<path d="M1292 2500 c2 -21 7 -29 16 -25 7 3 18 5 23 5 5 0 9 4 9 9 0 5 -10 7
-22 4 -19 -4 -20 -3 -8 6 11 8 12 11 2 11 -7 0 -10 5 -7 10 3 6 1 10 -5 10 -5
0 -9 -14 -8 -30z"/>
<path d="M676 1709 c-8 -12 -12 -29 -8 -38 5 -14 7 -13 10 4 8 46 62 54 62 9
0 -19 -5 -24 -25 -24 -14 0 -25 -4 -25 -10 0 -17 36 -11 55 10 15 17 16 24 7
45 -15 32 -55 34 -76 4z"/>
<path d="M1283 1789 c-23 -11 -44 -28 -48 -37 -5 -14 -4 -14 13 1 32 29 76 39
119 28 49 -13 82 -38 67 -48 -13 -9 -2 -47 15 -58 18 -10 13 81 -4 99 -15 15
-76 36 -105 36 -8 0 -34 -9 -57 -21z"/>
<path d="M1576 1800 c-50 -16 -66 -38 -66 -94 l0 -51 20 33 c16 26 18 37 9 48
-9 11 -3 18 32 34 55 25 75 25 122 1 43 -22 50 -13 10 11 -37 21 -91 29 -127
18z"/>
<path d="M1271 1723 l-35 -15 45 -19 c33 -16 55 -19 91 -14 27 4 48 11 48 15
0 5 -12 18 -26 29 -31 24 -74 26 -123 4z"/>
<path d="M1576 1719 c-14 -11 -26 -24 -26 -29 0 -4 21 -11 48 -14 47 -6 123
12 129 31 3 9 -73 33 -106 33 -10 0 -30 -9 -45 -21z"/>
<path d="M1245 1670 c-10 -15 14 -147 34 -195 49 -112 138 -159 255 -135 102
21 166 106 185 242 12 91 -3 122 -18 36 -15 -88 -34 -139 -70 -192 -37 -53
-82 -76 -151 -76 -109 0 -173 77 -206 249 -16 81 -18 88 -29 71z"/>
<path d="M1416 1575 c-8 -22 -5 -26 38 -49 34 -18 35 -18 70 4 20 12 36 25 36
28 0 12 -20 38 -20 27 0 -13 -102 -14 -111 -2 -3 5 -9 1 -13 -8z"/>
<path d="M1425 1490 c-4 -6 -15 -10 -25 -10 -10 0 -21 -4 -24 -8 -3 -5 46 -8
109 -8 63 0 112 2 110 5 -24 23 -158 40 -170 21z"/>
<path d="M1417 1431 c3 -11 18 -25 35 -32 37 -15 74 -4 96 30 16 23 16 23 -8
15 -31 -11 -78 -11 -107 -1 -18 7 -21 5 -16 -12z"/>
<path d="M2211 1741 c-8 -5 -17 -32 -21 -60 -3 -27 -3 -48 2 -45 4 3 8 21 8
40 0 21 8 42 20 54 21 21 16 26 -9 11z"/>
<path d="M2222 1718 c-15 -15 -16 -58 -2 -58 6 0 10 11 10 25 0 24 9 30 38 26
6 -1 12 3 12 9 0 14 -43 13 -58 -2z"/>
<path d="M1090 901 c0 -15 29 -21 106 -21 59 0 74 3 74 15 0 12 -17 15 -90 15
-49 0 -90 -4 -90 -9z"/>
<path d="M1215 835 c51 -12 70 -11 60 6 -4 5 -30 8 -58 8 l-52 -1 50 -13z"/>
<path d="M1706 946 c-3 -11 -3 -22 -1 -25 3 -2 5 1 5 7 0 9 33 12 109 12 107
0 148 11 94 25 -14 3 -66 5 -114 4 -78 -3 -88 -5 -93 -23z"/>
<path d="M1700 895 c0 -12 15 -15 74 -15 77 0 106 6 106 21 0 5 -40 9 -90 9
-73 0 -90 -3 -90 -15z"/>
<path d="M1760 853 c-30 -2 -59 -9 -65 -15 -13 -14 105 -2 119 12 6 6 8 9 6 8
-3 -1 -30 -3 -60 -5z"/>
<path d="M1370 913 c0 -11 75 -33 115 -33 39 0 115 22 115 33 0 2 -26 -3 -58
-11 -51 -12 -66 -12 -115 0 -31 8 -57 13 -57 11z"/>
<path d="M1383 873 c23 -23 178 -26 199 -4 11 12 10 13 -7 7 -47 -18 -130 -18
-170 -2 -38 16 -39 16 -22 -1z"/>
<path d="M1405 835 c39 -18 121 -18 160 0 l30 14 -30 -7 c-16 -4 -52 -7 -80
-7 -27 0 -63 3 -80 7 l-30 7 30 -14z"/>
<path d="M855 2593 c-5 -16 -15 -23 -34 -23 l-26 -1 22 -18 c15 -12 18 -22 12
-32 -16 -25 -10 -32 15 -16 21 14 25 14 41 -1 17 -16 17 -16 12 8 -4 15 0 31
10 42 15 17 14 18 -10 18 -19 0 -27 6 -30 23 l-4 22 -8 -22z"/>
<path d="M2106 2593 c-5 -16 -15 -23 -34 -23 l-27 0 22 -18 c17 -12 20 -21 13
-32 -17 -26 -11 -33 14 -17 21 14 25 14 41 -1 17 -16 17 -16 11 11 -5 20 -2
29 9 33 21 8 19 24 -3 24 -11 0 -23 10 -29 23 l-10 22 -7 -22z"/>
<path d="M610 2560 c0 -13 7 -20 20 -20 13 0 20 7 20 20 0 13 -7 20 -20 20
-13 0 -20 -7 -20 -20z"/>
<path d="M2320 2560 c0 -13 7 -20 19 -20 14 0 19 6 18 20 -1 12 -8 20 -19 20
-11 0 -18 -7 -18 -20z"/>
<path d="M687 2513 c-4 -3 -7 -14 -7 -23 0 -19 27 -23 34 -4 6 14 -17 37 -27
27z"/>
<path d="M2256 2502 c-6 -10 5 -26 22 -29 6 -2 12 6 12 17 0 19 -24 28 -34 12z"/>
<path d="M398 2461 c-43 -14 -78 -29 -78 -34 0 -4 14 -10 30 -13 26 -6 30 -11
30 -38 l0 -31 58 1 c120 2 122 3 122 24 0 31 -36 43 -109 37 -62 -5 -64 -4
-36 8 39 18 87 18 130 1 29 -13 35 -20 35 -45 0 -17 5 -31 10 -31 6 0 10 11
10 24 0 18 8 27 32 35 41 14 32 21 -72 58 l-85 29 -77 -25z"/>
<path d="M2380 2447 l-85 -31 38 -14 c26 -11 37 -21 37 -36 0 -19 5 -21 63
-20 134 3 127 2 127 28 0 28 -16 36 -76 36 -28 0 -43 4 -39 10 8 13 64 13 104
-1 27 -9 31 -16 31 -45 0 -19 5 -34 11 -34 6 0 9 14 7 32 -3 28 1 33 32 43 38
14 40 13 -54 45 -75 25 -92 24 -196 -13z"/>
<path d="M341 2277 c-17 -30 -31 -57 -31 -61 0 -3 81 -6 180 -6 99 0 180 2
180 5 0 2 -16 30 -36 61 l-36 56 -51 -6 c-64 -6 -60 -6 -123 0 l-52 6 -31 -55z
m126 18 c18 -13 22 -13 33 0 13 16 67 20 86 7 6 -4 19 -22 28 -39 l17 -33 -66
0 c-36 0 -65 4 -65 10 0 13 44 23 75 18 28 -6 34 6 9 16 -29 11 -67 6 -86 -11
-17 -15 -19 -15 -38 2 -14 13 -29 16 -55 12 -36 -6 -44 0 -23 21 16 16 59 15
85 -3z m-29 -41 c44 -9 21 -24 -38 -24 -56 0 -60 1 -51 19 10 18 22 19 89 5z"/>
<path d="M2336 2273 l-35 -58 89 -3 c49 -1 132 -1 184 0 l96 3 -33 55 c-31 51
-36 55 -75 58 -23 2 -50 -2 -61 -7 -13 -7 -22 -8 -26 -1 -3 5 -28 10 -55 10
-48 0 -49 0 -84 -57z m134 22 c11 -13 15 -13 33 0 23 16 65 20 82 7 11 -8 45
-58 45 -67 0 -3 -27 -5 -60 -5 -33 0 -60 4 -60 10 0 13 45 24 70 17 24 -6 27
8 4 17 -27 10 -57 7 -75 -10 -16 -15 -20 -15 -41 0 -23 17 -55 20 -82 10 -29
-11 -17 -20 22 -16 23 2 45 -3 57 -12 19 -14 15 -15 -53 -16 -72 0 -73 0 -61
23 22 41 42 57 74 57 18 0 38 -7 45 -15z"/>
<path d="M241 2186 c-14 -17 -7 -36 14 -36 22 0 29 20 13 36 -13 13 -16 13
-27 0z"/>
<path d="M2703 2184 c-8 -21 13 -42 28 -27 13 13 5 43 -11 43 -6 0 -13 -7 -17
-16z"/>
<path d="M527 2003 c-26 -26 12 -80 47 -67 21 8 30 42 16 59 -13 15 -51 20
-63 8z"/>
<path d="M2381 1991 c-14 -25 -5 -48 19 -54 28 -7 52 15 48 44 -4 32 -52 40
-67 10z"/>
<path d="M223 1854 c-8 -21 13 -42 28 -27 13 13 5 43 -11 43 -6 0 -13 -7 -17
-16z"/>
<path d="M2714 1859 c-3 -6 0 -17 8 -25 13 -13 16 -13 27 0 7 8 10 20 6 26 -8
13 -32 13 -41 -1z"/>
<path d="M457 1493 c-14 -13 -7 -43 12 -53 28 -14 55 13 41 41 -10 19 -40 26
-53 12z"/>
<path d="M2471 1487 c-25 -31 13 -66 46 -42 14 11 16 18 7 32 -14 23 -38 28
-53 10z"/>
<path d="M620 1160 c0 -15 5 -20 18 -18 9 2 17 10 17 18 0 8 -8 16 -17 18 -13
2 -18 -3 -18 -18z"/>
<path d="M2322 1163 c2 -10 10 -18 18 -18 22 0 18 29 -3 33 -14 3 -18 -1 -15
-15z"/>
<path d="M209 1047 c-68 -46 -99 -123 -79 -197 13 -50 61 -105 104 -121 28
-10 32 -16 28 -40 -3 -23 2 -31 26 -47 50 -30 144 -123 138 -137 -2 -7 2 -22
10 -34 14 -20 23 -21 183 -21 131 0 171 3 187 15 12 9 43 14 88 15 l68 0 79
-77 c44 -42 79 -82 79 -89 0 -6 7 -17 15 -24 19 -16 65 1 65 24 0 21 -28 46
-51 46 -12 0 -58 34 -103 77 l-83 76 -79 -2 c-52 -2 -84 -7 -95 -17 -20 -18
-44 -18 -63 2 -23 23 -20 51 9 70 23 15 27 15 50 0 18 -12 48 -16 114 -16 l91
0 67 -64 c38 -35 87 -76 109 -92 23 -16 103 -80 177 -142 75 -61 138 -112 141
-112 4 0 67 51 142 112 74 62 150 122 168 133 18 11 68 53 111 93 l79 72 86 0
c59 0 97 5 118 16 41 20 72 5 72 -34 0 -49 -42 -69 -74 -36 -12 12 -36 15 -97
15 l-81 0 -83 -76 c-46 -42 -92 -75 -103 -75 -21 0 -52 -24 -52 -40 0 -16 32
-41 49 -38 9 2 21 14 28 28 7 14 45 58 86 98 l74 73 73 0 c51 0 77 -5 89 -16
14 -12 47 -15 180 -15 93 0 171 4 182 10 11 6 19 21 19 36 0 18 18 41 61 82
34 31 72 61 85 65 24 9 41 47 30 65 -3 5 7 15 23 22 88 36 128 166 78 254 -37
65 -67 81 -151 81 -64 0 -77 -3 -109 -27 -19 -16 -39 -38 -43 -50 -9 -30 -22
-38 -60 -38 -41 0 -104 -61 -104 -102 0 -26 3 -28 39 -28 45 0 81 -25 84 -57
1 -15 8 -23 19 -23 11 0 18 -7 18 -20 0 -13 -7 -20 -20 -20 -13 0 -20 -7 -20
-18 0 -30 -33 -52 -77 -52 -39 0 -73 22 -73 48 0 9 -42 12 -148 12 -129 0
-151 -2 -165 -18 -15 -16 -11 -17 81 -15 53 1 105 5 115 8 31 13 64 -33 36
-51 -7 -4 -75 -6 -153 -5 l-141 2 -80 -81 c-71 -72 -83 -80 -117 -80 -27 0
-38 -4 -38 -15 0 -8 -12 -22 -26 -31 -24 -16 -27 -16 -52 3 -33 25 -38 47 -18
78 17 26 69 35 81 15 3 -6 21 -10 38 -10 28 0 49 17 155 123 124 124 144 157
96 157 -19 0 -55 -28 -142 -110 l-116 -110 -250 0 -251 1 -115 109 c-89 85
-121 110 -142 110 -53 0 -32 -34 98 -159 101 -97 132 -121 154 -121 16 0 32 5
35 10 10 17 61 11 78 -8 46 -51 -13 -124 -69 -87 -13 8 -24 22 -24 30 0 11
-11 15 -38 15 -34 0 -46 8 -117 80 l-80 81 -144 -2 c-152 -2 -171 4 -149 44 7
13 16 17 31 13 26 -7 217 -14 217 -8 0 3 -8 11 -17 18 -13 10 -57 13 -158 14
l-140 0 -17 -30 c-15 -26 -23 -30 -61 -30 -33 0 -49 6 -65 23 -12 13 -22 29
-22 35 0 7 -9 12 -20 12 -12 0 -20 7 -20 16 0 9 9 18 20 21 11 3 20 12 20 20
0 28 47 63 85 63 33 0 35 2 35 33 0 44 -53 97 -96 97 -24 0 -36 8 -55 37 -52
80 -176 110 -250 60z m161 -53 l31 -27 -29 -31 c-34 -36 -37 -60 -11 -98 13
-18 19 -44 19 -86 l0 -59 79 -72 c83 -74 104 -82 146 -55 23 15 27 15 50 0 29
-19 32 -42 8 -68 -20 -22 -46 -23 -63 -3 -7 9 -29 15 -54 15 -39 0 -47 6 -129
88 -82 82 -87 90 -87 130 0 41 -1 42 -32 42 -100 1 -156 124 -91 200 48 57
112 66 163 24z m2386 -5 c77 -72 38 -202 -65 -216 -39 -5 -41 -7 -41 -42 0
-32 -10 -46 -92 -128 -78 -79 -98 -93 -124 -93 -18 0 -46 -8 -63 -17 -39 -23
-65 -9 -69 35 -2 23 2 34 18 42 22 12 60 5 60 -11 0 -5 15 -9 33 -9 27 0 45
12 111 79 l78 78 -3 56 c-2 44 2 62 17 80 28 33 26 58 -8 91 l-31 29 33 30
c29 25 39 29 77 24 27 -3 54 -14 69 -28z m-2288 -65 c41 -29 19 -96 -31 -96
-56 0 -80 50 -42 88 28 28 42 30 73 8z m2115 -16 c19 -25 19 -29 4 -51 -23
-36 -55 -40 -83 -12 -30 30 -30 40 1 71 30 30 51 28 78 -8z m-1052 -396 c52
-43 11 -131 -55 -118 -41 9 -59 29 -59 67 0 37 32 69 68 69 13 0 33 -8 46 -18z
m-115 -133 c21 -20 22 -24 10 -48 -16 -30 -8 -57 23 -85 27 -24 64 -14 93 25
19 24 19 28 4 56 -14 29 -14 31 8 52 28 26 38 26 61 1 10 -11 26 -20 37 -20
32 0 19 -19 -58 -82 -113 -94 -107 -94 -208 -9 -79 66 -96 91 -62 91 7 0 21 9
31 20 23 25 33 25 61 -1z m94 -54 c20 -25 8 -50 -25 -50 -21 0 -31 5 -33 18
-4 21 14 47 33 47 7 0 18 -7 25 -15z"/>
<path d="M269 925 l-37 -33 38 -37 c42 -41 69 -31 29 11 l-22 24 23 25 c38 40
11 49 -31 10z"/>
<path d="M2662 947 c-10 -12 -7 -18 14 -32 l26 -17 -26 -27 c-22 -23 -24 -30
-13 -39 11 -9 21 -4 47 23 l34 35 -35 36 c-30 30 -37 33 -47 21z"/>
<path d="M722 958 c-27 -27 5 -73 38 -53 20 12 4 65 -20 65 -3 0 -11 -5 -18
-12z"/>
<path d="M2210 955 c-25 -30 15 -70 45 -45 19 16 19 25 -1 44 -19 20 -28 20
-44 1z"/>
<path d="M547 763 c-14 -14 -6 -21 28 -25 29 -3 35 -1 35 14 0 13 -8 18 -28
18 -16 0 -32 -3 -35 -7z"/>
<path d="M650 755 c0 -13 22 -15 135 -15 113 0 135 2 135 15 0 13 -22 15 -135
15 -113 0 -135 -2 -135 -15z"/>
<path d="M2050 755 c0 -13 22 -15 140 -15 118 0 140 2 140 15 0 13 -22 15
-140 15 -118 0 -140 -2 -140 -15z"/>
<path d="M2360 756 c0 -14 33 -24 62 -18 10 2 15 9 11 18 -7 19 -73 19 -73 0z"/>
<path d="M550 699 c-13 -8 -13 -10 0 -19 20 -13 52 -8 58 9 3 9 0 11 -7 7 -7
-4 -17 -3 -24 3 -8 6 -18 6 -27 0z"/>
<path d="M2395 699 c-3 -4 -13 -5 -23 -2 -15 6 -15 5 -3 -10 16 -21 44 -22 60
-3 9 11 7 15 -9 19 -11 3 -22 1 -25 -4z"/>
<path d="M1291 471 c-15 -10 -8 -41 9 -41 15 0 25 29 14 40 -5 5 -15 5 -23 1z"/>
<path d="M1653 464 c-8 -21 13 -42 28 -27 13 13 5 43 -11 43 -6 0 -13 -7 -17
-16z"/>
<path d="M860 440 c0 -5 14 -10 30 -10 17 0 33 0 37 -1 4 0 9 4 11 10 2 7 -12
11 -37 11 -23 0 -41 -4 -41 -10z"/>
<path d="M2030 440 c0 -5 18 -10 40 -10 22 0 40 5 40 10 0 6 -18 10 -40 10
-22 0 -40 -4 -40 -10z"/>
<path d="M962 398 c-34 -34 6 -90 48 -68 26 14 26 56 1 70 -25 13 -34 13 -49
-2z"/>
<path d="M1956 394 c-22 -21 -20 -51 4 -64 42 -22 82 34 48 68 -16 16 -33 15
-52 -4z"/>
<path d="M591 386 c-22 -27 17 -69 43 -46 7 5 77 11 156 12 104 2 145 6 148
16 3 9 -30 12 -142 12 -91 0 -146 4 -146 10 0 15 -46 12 -59 -4z"/>
<path d="M2330 391 c0 -7 -50 -11 -150 -11 -129 0 -149 -2 -144 -15 5 -12 31
-15 146 -15 80 0 148 -5 159 -11 26 -13 51 6 47 35 -2 15 -12 22 -30 24 -16 2
-28 -1 -28 -7z"/>
</g>
</svg>
